<?xml version="1.0" standalone="no"?>
<!DOCTYPE svg PUBLIC "-//W3C//DTD SVG 20010904//EN"
 "http://www.w3.org/TR/2001/REC-SVG-20010904/DTD/svg10.dtd">
<svg version="1.0" xmlns="http://www.w3.org/2000/svg"
 width="152.000000pt" height="152.000000pt" viewBox="0 0 152.000000 152.000000"
 preserveAspectRatio="xMidYMid meet">
<metadata>
Created by potrace 1.14, written by Peter Selinger 2001-2017
</metadata>
<g transform="translate(0.000000,152.000000) scale(0.100000,-0.100000)"
fill="#000000" stroke="none">
<path d="M685 1513 c-190 -35 -326 -103 -435 -219 -40 -42 -44 -41 81 -5 68
19 85 18 85 -9 0 -8 3 -37 8 -64 l8 -48 63 68 c66 73 139 122 223 153 50 19
51 19 105 -4 131 -53 235 -143 291 -253 20 -39 18 -43 -34 -67 -22 -10 -40
-21 -40 -24 0 -4 35 -19 78 -35 42 -15 91 -33 107 -41 66 -28 126 -48 131 -43
3 3 7 18 10 34 3 16 16 76 30 134 43 177 44 174 -11 140 l-32 -20 -48 55
c-102 120 -264 214 -415 241 -43 7 -178 12 -205 7z"/>
<path d="M711 1262 c-6 -2 -11 -21 -11 -42 0 -34 -4 -39 -32 -49 -18 -6 -49
-30 -70 -52 -65 -70 -69 -164 -9 -226 39 -42 73 -58 157 -79 85 -21 114 -38
114 -68 0 -38 -34 -60 -95 -60 -46 0 -60 5 -95 33 -46 36 -53 36 -112 -12
l-28 -23 30 -36 c17 -20 55 -48 85 -63 51 -24 55 -28 55 -60 0 -35 3 -37 50
-37 76 0 76 0 76 38 -1 34 2 38 43 54 84 32 137 137 110 217 -23 71 -81 109
-201 133 -96 19 -133 65 -88 110 27 27 110 28 154 0 l32 -19 44 39 45 40 -25
21 c-14 12 -46 32 -72 45 -44 22 -47 26 -44 59 2 21 -1 35 -8 36 -41 4 -95 4
-105 1z"/>
<path d="M325 1244 c-123 -39 -213 -66 -235 -70 -40 -8 -45 -21 -12 -38 17 -9
33 -20 37 -26 3 -5 -5 -40 -18 -77 -132 -369 86 -796 462 -907 91 -27 95 -21
25 46 -35 33 -64 65 -64 70 0 12 14 26 63 62 21 16 35 31 32 34 -3 3 -25 7
-48 9 -79 6 -172 45 -259 107 -46 34 -59 49 -67 83 -16 61 -13 176 5 247 20
78 73 186 91 186 7 0 32 -12 54 -26 l42 -26 -7 44 c-4 25 -9 56 -11 69 -2 13
-7 42 -10 64 -4 22 -8 47 -10 55 -2 8 -4 29 -4 46 -2 51 -19 63 -66 48z"/>
<path d="M1405 964 c-10 -47 -22 -87 -25 -89 -6 -4 -63 15 -121 39 -12 5 -10
-10 13 -76 26 -76 28 -93 26 -202 l-3 -118 -45 -40 c-85 -74 -219 -126 -335
-129 -90 -3 -87 -5 -83 51 2 29 -1 49 -7 49 -5 0 -66 -46 -134 -102 l-124
-101 124 -117 c68 -64 127 -115 130 -113 3 2 5 18 4 36 -3 42 10 58 45 58 72
0 225 64 318 132 184 136 284 336 284 565 1 96 -25 243 -41 243 -4 0 -16 -38
-26 -86z"/>
</g>
</svg>
